<?xml version="1.0" encoding="UTF-8"?>
<svg xmlns="http://www.w3.org/2000/svg" xmlns:xlink="http://www.w3.org/1999/xlink" width="60px" height="60px" viewBox="0 0 60 59" version="1.1">
<g id="surface1">
<path style=" stroke:none;fill-rule:nonzero;fill:rgb(0%,0%,0%);fill-opacity:1;" d="M 25.945312 0.199219 C 12.257812 2.140625 1.796875 12.609375 0.136719 26.046875 C -0.0429688 27.492188 -0.0429688 31.507812 0.136719 32.953125 C 0.691406 37.394531 2.429688 42.136719 4.796875 45.644531 C 9.835938 53.101562 17.714844 57.871094 26.605469 58.878906 C 28.5 59.09375 33.296875 58.972656 35 58.667969 C 41.566406 57.5 47.105469 54.613281 51.636719 50.003906 C 55.933594 45.617188 58.511719 40.59375 59.675781 34.351562 C 60.042969 32.4375 60.042969 26.5625 59.675781 24.648438 C 58.472656 18.167969 55.808594 13.128906 51.230469 8.625 C 46.664062 4.132812 41.511719 1.5 35 0.332031 C 33.257812 0.0117188 27.769531 -0.0664062 25.945312 0.199219 Z M 22.433594 24.210938 C 22.445312 34.429688 22.472656 35.066406 23.09375 36.488281 C 23.445312 37.300781 24.1875 38.042969 24.929688 38.351562 C 25.988281 38.789062 28.148438 38.722656 29.324219 38.21875 C 29.5 38.148438 29.621094 38.375 29.917969 39.292969 C 30.609375 41.394531 31.742188 43.34375 33.109375 44.820312 C 33.890625 45.671875 33.945312 45.59375 32.367188 46.148438 C 30.691406 46.734375 28.917969 46.945312 26.378906 46.867188 C 23.675781 46.789062 22.109375 46.441406 20.1875 45.511719 C 16.796875 43.878906 14.757812 41.234375 13.730469 37.195312 C 13.1875 35.042969 13.109375 33.394531 13.109375 23.679688 L 13.109375 14.617188 L 22.433594 14.617188 Z M 41.082031 23.679688 C 41.082031 28.675781 41.148438 33.285156 41.21875 33.953125 C 41.472656 36.355469 42.09375 37.539062 43.445312 38.203125 C 44.257812 38.601562 44.285156 38.601562 46.863281 38.644531 L 49.460938 38.695312 L 49.460938 46.933594 L 46.1875 46.867188 C 42.664062 46.800781 41.867188 46.683594 39.785156 45.910156 C 36.324219 44.621094 33.648438 41.605469 32.566406 37.726562 C 31.933594 35.414062 31.890625 34.695312 31.890625 24.34375 L 31.890625 14.617188 L 41.082031 14.617188 Z M 41.082031 23.679688 "/>
</g>
</svg>
