<?xml version="1.0" encoding="UTF-8"?>
<svg xmlns="http://www.w3.org/2000/svg" xmlns:xlink="http://www.w3.org/1999/xlink" width="80px" height="80px" viewBox="0 0 80 80" version="1.1">
<g id="surface1">
<path style=" stroke:none;fill-rule:nonzero;fill:rgb(0%,0%,0%);fill-opacity:1;" d="M 34.59375 0.273438 C 16.34375 2.898438 2.398438 17.101562 0.179688 35.316406 C -0.0546875 37.277344 -0.0546875 42.722656 0.179688 44.683594 C 0.921875 50.703125 3.242188 57.136719 6.394531 61.890625 C 13.117188 72 23.621094 78.46875 35.476562 79.835938 C 38 80.125 44.394531 79.964844 46.667969 79.550781 C 55.421875 77.964844 62.808594 74.054688 68.847656 67.800781 C 74.578125 61.855469 78.015625 55.042969 79.566406 46.578125 C 80.054688 43.980469 80.054688 36.019531 79.566406 33.421875 C 77.964844 24.632812 74.414062 17.800781 68.304688 11.695312 C 62.214844 5.605469 55.351562 2.035156 46.667969 0.449219 C 44.34375 0.015625 37.027344 -0.0898438 34.59375 0.273438 Z M 29.910156 32.828125 C 29.925781 46.683594 29.964844 47.550781 30.792969 49.476562 C 31.261719 50.574219 32.25 51.585938 33.242188 52 C 34.648438 52.59375 37.53125 52.503906 39.101562 51.820312 C 39.335938 51.730469 39.496094 52.035156 39.890625 53.28125 C 40.8125 56.128906 42.324219 58.773438 44.144531 60.773438 C 45.191406 61.925781 45.261719 61.820312 43.152344 62.574219 C 40.921875 63.371094 38.558594 63.65625 35.171875 63.546875 C 31.566406 63.441406 29.476562 62.972656 26.917969 61.710938 C 22.398438 59.496094 19.675781 55.910156 18.304688 50.433594 C 17.585938 47.515625 17.476562 45.28125 17.476562 32.109375 L 17.476562 19.820312 L 29.910156 19.820312 Z M 54.773438 32.109375 C 54.773438 38.882812 54.867188 45.132812 54.957031 46.035156 C 55.296875 49.296875 56.128906 50.898438 57.929688 51.800781 C 59.011719 52.34375 59.046875 52.34375 62.484375 52.398438 L 65.945312 52.46875 L 65.945312 63.640625 L 61.585938 63.546875 C 56.882812 63.460938 55.820312 63.296875 53.046875 62.25 C 48.433594 60.503906 44.867188 56.414062 43.421875 51.152344 C 42.574219 48.015625 42.523438 47.042969 42.523438 33.007812 L 42.523438 19.820312 L 54.773438 19.820312 Z M 54.773438 32.109375 "/>
</g>
</svg>
