<?xml version="1.0" encoding="UTF-8" standalone="no" ?>
<!DOCTYPE svg PUBLIC "-//W3C//DTD SVG 1.1//EN" "http://www.w3.org/Graphics/SVG/1.1/DTD/svg11.dtd">
<svg xmlns="http://www.w3.org/2000/svg" xmlns:xlink="http://www.w3.org/1999/xlink" version="1.1" width="1080" height="1080" viewBox="0 0 1080 1080" xml:space="preserve">
<desc>Created with Fabric.js 4.2.0</desc>
<defs>
</defs>
<rect x="0" y="0" width="100%" height="100%" fill="transparent"></rect>
<g transform="matrix(1 0 0 1 540 540)" id="ed82d1b6-8631-45f2-82a3-7468b5f87a29"  >
<rect style="stroke: none; stroke-width: 1; stroke-dasharray: none; stroke-linecap: butt; stroke-dashoffset: 0; stroke-linejoin: miter; stroke-miterlimit: 4; fill: rgb(0,0,0); fill-rule: nonzero; opacity: 1; visibility: hidden;" vector-effect="non-scaling-stroke"  x="-540" y="-540" rx="0" ry="0" width="1080" height="1080" />
</g>
<g transform="matrix(1 0 0 1 540 540)" id="77ffa818-c49a-4803-b77d-285ea0d9fa3e"  >
</g>
<g transform="matrix(1.26 0 0 1.26 386.55 693.45)" id="cdb77f89-ac6f-439a-99e2-504bebc69932"  >
<path style="stroke: rgb(0,0,0); stroke-width: 0; stroke-dasharray: none; stroke-linecap: butt; stroke-dashoffset: 0; stroke-linejoin: miter; stroke-miterlimit: 4; fill: rgb(255,255,255); fill-rule: nonzero; opacity: 1;" vector-effect="non-scaling-stroke"  transform=" translate(-53.46, -53.52)" d="M 46.269531 0.363281 C 21.859375 3.878906 3.207031 22.871094 0.242188 47.234375 C -0.0742188 49.859375 -0.0742188 57.140625 0.242188 59.765625 C 1.230469 67.816406 4.335938 76.417969 8.554688 82.78125 C 17.542969 96.300781 31.59375 104.953125 47.449219 106.78125 C 50.824219 107.167969 59.378906 106.953125 62.417969 106.398438 C 74.128906 104.277344 84.007812 99.046875 92.082031 90.683594 C 99.746094 82.730469 104.347656 73.621094 106.421875 62.296875 C 107.074219 58.824219 107.074219 48.175781 106.421875 44.703125 C 104.277344 32.945312 99.527344 23.808594 91.359375 15.640625 C 83.214844 7.496094 74.03125 2.722656 62.417969 0.601562 C 59.308594 0.0234375 49.523438 -0.121094 46.269531 0.363281 Z M 40.003906 43.910156 C 40.027344 62.441406 40.078125 63.597656 41.183594 66.175781 C 41.8125 67.644531 43.136719 68.996094 44.460938 69.550781 C 46.34375 70.34375 50.199219 70.226562 52.296875 69.308594 C 52.609375 69.1875 52.824219 69.597656 53.355469 71.261719 C 54.585938 75.070312 56.609375 78.609375 59.042969 81.285156 C 60.441406 82.828125 60.535156 82.683594 57.71875 83.695312 C 54.730469 84.757812 51.570312 85.140625 47.042969 84.996094 C 42.222656 84.851562 39.425781 84.226562 36.003906 82.539062 C 29.957031 79.574219 26.316406 74.78125 24.484375 67.453125 C 23.519531 63.550781 23.375 60.5625 23.375 42.945312 L 23.375 26.507812 L 40.003906 26.507812 Z M 73.261719 42.945312 C 73.261719 52.003906 73.382812 60.367188 73.503906 61.574219 C 73.960938 65.933594 75.070312 68.078125 77.480469 69.285156 C 78.925781 70.007812 78.972656 70.007812 83.574219 70.082031 L 88.203125 70.175781 L 88.203125 85.117188 L 82.371094 84.996094 C 76.082031 84.878906 74.660156 84.660156 70.949219 83.261719 C 64.777344 80.925781 60.007812 75.453125 58.078125 68.417969 C 56.945312 64.222656 56.875 62.921875 56.875 44.148438 L 56.875 26.507812 L 73.261719 26.507812 Z M 73.261719 42.945312" stroke-linecap="round" />
</g>
</svg>